# xmcd
#
# Track frame offsets: 
#        150
#        20000
#        34325
#        67975
#        84937
#        99660
#        120550
#        161455
#        186075
#        198850
#        222555
#        237542
#        292330
#
# Disc length: 4344 seconds
#
# Revision: 0
# Processed by: cddbd v1.5.2PL0 Copyright (c) Steve Scherf et al.
# Submitted via: ExactAudioCopy v0.99pb5
#
DISCID=bd10f60d
DTITLE=Van Morrison - Call Me Raincheck
DYEAR=1994
DGENRE=Rhythmic Soul
TTITLE0=DID YE GET HEALED
TTITLE1=TORE DOWN A LA RIMBAUD
TTITLE2=VANLOSE STAIRWAY
TTITLE3=WONDERFUL REMARK
TTITLE4=CRAZY LOVE
TTITLE5=MY NAME IS RAINCHECK
TTITLE6=SEE ME THROUGH
TTITLE7=AIN'T THAT LOVIN YOU BABY
TTITLE8=DON'T CRY NO MORE
TTITLE9=STORMY MONDAY
TTITLE10=HELP ME
TTITLE11=GOOD MORNING LITTLE SCHOOL GIRL
TTITLE12=MOONDANCE
EXTD=
EXTT0=
EXTT1=
EXTT2=
EXTT3=
EXTT4=
EXTT5=
EXTT6=
EXTT7=
EXTT8=
EXTT9=
EXTT10=
EXTT11=
EXTT12=
PLAYORDER=
